<?xml version="1.0" encoding="UTF-8" standalone="no"?>
<svg
   xmlns:osb="http://www.openswatchbook.org/uri/2009/osb"
   xmlns:dc="http://purl.org/dc/elements/1.1/"
   xmlns:cc="http://creativecommons.org/ns#"
   xmlns:rdf="http://www.w3.org/1999/02/22-rdf-syntax-ns#"
   xmlns:svg="http://www.w3.org/2000/svg"
   xmlns="http://www.w3.org/2000/svg"
   xmlns:sodipodi="http://sodipodi.sourceforge.net/DTD/sodipodi-0.dtd"
   xmlns:inkscape="http://www.inkscape.org/namespaces/inkscape"
   width="511.99997"
   height="511.99997"
   viewBox="0 0 135.46666 135.46666"
   version="1.1"
   id="svg8"
   inkscape:version="1.0.1 (3bc2e813f5, 2020-09-07)"
   sodipodi:docname="D.O.C. Heal Drone.svg">
  <defs
     id="defs2">
    <linearGradient
       id="linearGradient1099-6-5"
       osb:paint="gradient">
      <stop
         style="stop-color:#273839;stop-opacity:0.5"
         offset="0"
         id="stop1151" />
      <stop
         style="stop-color:#273839;stop-opacity:1"
         offset="1"
         id="stop1153" />
    </linearGradient>
  </defs>
  <sodipodi:namedview
     id="base"
     pagecolor="#ffffff"
     bordercolor="#666666"
     borderopacity="1.0"
     inkscape:pageopacity="0.0"
     inkscape:pageshadow="2"
     inkscape:zoom="0.98994949"
     inkscape:cx="131.57245"
     inkscape:cy="277.95386"
     inkscape:document-units="px"
     inkscape:current-layer="layer1"
     inkscape:document-rotation="0"
     showgrid="false"
     inkscape:pagecheckerboard="true"
     inkscape:object-nodes="true"
     fit-margin-top="0"
     fit-margin-left="0"
     fit-margin-right="0"
     fit-margin-bottom="0"
     inkscape:window-width="1600"
     inkscape:window-height="837"
     inkscape:window-x="-8"
     inkscape:window-y="-8"
     inkscape:window-maximized="1"
     units="px" />
  <metadata
     id="metadata5">
    <rdf:RDF>
      <cc:Work
         rdf:about="">
        <dc:format>image/svg+xml</dc:format>
        <dc:type
           rdf:resource="http://purl.org/dc/dcmitype/StillImage" />
        <dc:title></dc:title>
      </cc:Work>
    </rdf:RDF>
  </metadata>
  <g
     inkscape:label="Layer 1"
     inkscape:groupmode="layer"
     id="layer1"
     transform="translate(-59.62574,-110.15787)">
    <path
       style="fill:#000000;stroke-width:0.264583"
       id="path853"
       d="" />
    <path
       style="fill:#000000;stroke-width:0.264583"
       id="path849"
       d="" />
    <path
       style="fill:#273839;fill-opacity:1;stroke-width:0.437683"
       d="m 122.55658,231.28842 v -11.16093 h -2.7647 -2.76472 l -3.36285,-4.12912 c -1.84957,-2.27101 -3.36288,-4.25555 -3.36288,-4.41007 0,-0.15452 0.8757,-1.41898 1.94598,-2.80988 1.46265,-1.90082 1.82139,-2.65352 1.44436,-3.03055 -0.34362,-0.34361 -3.26564,-0.50181 -9.27716,-0.50229 -7.47789,-4.3e-4 -9.00208,-0.11389 -10.30744,-0.76594 l -1.53189,-0.76526 -0.125272,-4.26742 -0.125271,-4.2674 h 4.830363 4.83037 v -2.18842 -2.18842 h -4.81451 -4.814524 v -3.85484 -3.85486 l 3.610874,-1.90328 c 1.986,-1.04681 5.9,-3.1528 8.69778,-4.67999 2.79779,-1.52716 5.46575,-2.77666 5.92883,-2.77666 0.6134,0 1.5874,-1.30703 3.58777,-4.81453 l 2.74577,-4.8145 h 11.69776 11.69777 l 2.74578,4.8145 c 1.95449,3.42705 2.98119,4.81453 3.56265,4.81453 0.68946,0 14.29452,7.06068 17.41298,9.03687 0.9307,0.58979 0.99312,0.89099 0.87538,4.2245 l -0.12678,3.58942 -5.14278,0.12332 -5.14279,0.12332 v 2.17454 2.17453 h 5.2522 5.2522 v 4.14909 4.14909 l -1.76534,0.90061 c -1.61626,0.82455 -2.48995,0.89625 -10.3441,0.84902 -10.51412,-0.0633 -10.58489,-0.0294 -7.77387,3.71626 1.07448,1.43175 1.90091,2.73909 1.83652,2.9052 -0.0644,0.16612 -1.64798,2.09678 -3.5191,4.29035 l -3.40205,3.9883 h -4.58567 -4.58566 v 9.65546 9.65545 l -1.64132,-0.13585 -1.64131,-0.13584 -0.11799,-9.5196 c -0.0999,-8.06124 -0.21723,-9.51962 -0.76595,-9.51962 -0.55413,0 -0.64799,1.51626 -0.64799,10.46861 0,5.75773 -0.1196,10.78014 -0.26567,11.16091 -0.17002,0.44309 -0.80032,0.69233 -1.75073,0.69233 h -1.48506 z m 9.92733,-28.26905 c 5.94389,-2.87738 7.71461,-10.85638 3.53465,-15.92738 -2.69113,-3.26482 -8.1165,-4.69497 -11.86657,-3.12811 -2.1362,0.89256 -4.68977,3.31355 -5.59366,5.30319 -0.99002,2.17925 -1.0562,6.24076 -0.13756,8.44322 0.8974,2.15159 3.06639,4.38752 5.23001,5.39139 2.43445,1.12955 6.40626,1.09254 8.83313,-0.0823 z m 7.59137,-31.4554 c -0.70343,-1.19301 -1.60727,-2.67018 -2.00854,-3.28262 l -0.72961,-1.11352 -8.81275,0.002 -8.81275,0.002 -0.68308,1.20087 c -0.37569,0.66047 -1.23148,2.13641 -1.90174,3.27985 l -1.21866,2.07901 h 12.72304 12.72305 l -1.27896,-2.16912 z m -36.03984,70.14009 c -0.73955,-1.1966 -1.61229,-8.37459 -1.61229,-13.26045 0,-4.67438 0.1258,-5.74849 0.76593,-6.53943 0.73888,-0.91294 0.76596,-0.74833 0.76596,4.6566 0,3.08165 0.15936,6.35605 0.35412,7.27644 0.30587,1.44537 0.44636,1.59691 1.03082,1.11184 1.24364,-1.03214 4.17797,-5.70543 5.27025,-8.39354 0.6961,-1.71308 1.02359,-3.25038 0.92118,-4.3242 -0.0873,-0.91638 -0.1232,-1.66615 -0.0795,-1.66615 0.0437,0 0.61393,0.91214 1.26727,2.02698 1.10006,1.87709 1.14871,2.16024 0.65811,3.82972 -1.17984,4.01479 -8.70119,16.31884 -9.34186,15.28219 z m 46.45224,-3.07447 c -3.04992,-4.28028 -5.36239,-8.45617 -6.47735,-11.69683 -0.91967,-2.67309 -0.80839,-3.31851 0.82755,-4.79901 0.91455,-0.82765 0.91589,-0.82636 0.91624,0.88028 2e-4,0.98997 0.55303,2.87744 1.31384,4.48566 1.4025,2.9646 4.71462,7.94672 5.283,7.94672 0.87955,0 1.39173,-9.73701 0.71369,-13.56819 l -0.34857,-1.96958 0.86561,0.99615 c 1.12761,1.29766 1.55375,4.83457 1.22756,10.1888 -0.27106,4.44891 -1.11712,10.02633 -1.60793,10.59978 -0.15924,0.18604 -1.38037,-1.19265 -2.71364,-3.06378 z M 91.809335,218.03923 c -1.963941,-0.65326 -2.079001,-0.77818 -2.079001,-2.25741 0,-1.26742 0.521431,-2.2121 2.73553,-4.95612 l 2.735516,-3.39021 6.89352,-4.1e-4 6.89351,-3.9e-4 v 2.08865 c 0,2.03447 -0.0939,2.1821 -3.62004,5.68988 l -3.62002,3.60123 -3.93001,-0.0418 c -2.30097,-0.0244 -4.79179,-0.3285 -6.009005,-0.73337 z m 60.021755,-2.58331 -3.45121,-3.35853 v -2.33134 -2.33136 h 6.76872 6.76871 l 2.85576,3.39204 c 2.43272,2.88959 2.8402,3.61375 2.75088,4.8888 -0.0961,1.37275 -0.28616,1.56031 -2.29327,2.26391 -1.4065,0.49306 -3.57474,0.77928 -6.0684,0.80109 l -3.88,0.0339 z m 1.36329,-60.0891 v -4.39326 h -4.37681 -4.37683 v -3.93915 -3.93915 h 4.37683 4.37681 v -4.39325 -4.39326 l 4.04859,0.12584 4.04854,0.12586 v 4.26801 4.26802 l 4.48628,-4.5e-4 4.48625,-7.7e-4 v 3.93915 3.93915 h -4.36099 -4.36099 l -0.12527,4.26741 -0.12528,4.26742 -4.04854,0.12584 -4.04859,0.12585 z m -53.835,-7.66386 v -7.23379 h -7.452638 -7.452634 l 0.121462,-6.23699 0.121464,-6.23698 7.331194,-0.11998 7.331192,-0.11997 v -7.21118 -7.2112 h 6.3464 6.34641 v 7.2112 7.21118 l 7.33119,0.11997 7.3312,0.11998 0.12146,6.23698 0.12146,6.23699 h -7.44179 -7.44179 l -0.12022,7.11235 -0.12022,7.11234 -6.23698,0.12146 -6.23698,0.12146 z"
       id="path855" />
  </g>
</svg>
