<?xml version="1.0" encoding="UTF-8" standalone="no"?>
<svg
   width="511.99997"
   height="511.99997"
   viewBox="0 0 135.46666 135.46666"
   version="1.1"
   id="svg8"
   inkscape:version="1.1.1 (3bf5ae0d25, 2021-09-20)"
   sodipodi:docname="D.O.C._Heal_Drone.svg"
   xmlns:inkscape="http://www.inkscape.org/namespaces/inkscape"
   xmlns:sodipodi="http://sodipodi.sourceforge.net/DTD/sodipodi-0.dtd"
   xmlns="http://www.w3.org/2000/svg"
   xmlns:svg="http://www.w3.org/2000/svg"
   xmlns:rdf="http://www.w3.org/1999/02/22-rdf-syntax-ns#"
   xmlns:cc="http://creativecommons.org/ns#"
   xmlns:dc="http://purl.org/dc/elements/1.1/">
  <defs
     id="defs2">
    <linearGradient
       id="linearGradient1099-6-5"
       inkscape:swatch="gradient">
      <stop
         style="stop-color:#273839;stop-opacity:0.5"
         offset="0"
         id="stop1151" />
      <stop
         style="stop-color:#273839;stop-opacity:1"
         offset="1"
         id="stop1153" />
    </linearGradient>
  </defs>
  <sodipodi:namedview
     id="base"
     pagecolor="#ffffff"
     bordercolor="#666666"
     borderopacity="1.0"
     inkscape:pageopacity="0.0"
     inkscape:pageshadow="2"
     inkscape:zoom="0.98994949"
     inkscape:cx="131.82491"
     inkscape:cy="278.29703"
     inkscape:document-units="px"
     inkscape:current-layer="layer1"
     inkscape:document-rotation="0"
     showgrid="false"
     inkscape:pagecheckerboard="true"
     inkscape:object-nodes="true"
     fit-margin-top="0"
     fit-margin-left="0"
     fit-margin-right="0"
     fit-margin-bottom="0"
     inkscape:window-width="1920"
     inkscape:window-height="1017"
     inkscape:window-x="-8"
     inkscape:window-y="-8"
     inkscape:window-maximized="1"
     units="px" />
  <metadata
     id="metadata5">
    <rdf:RDF>
      <cc:Work
         rdf:about="">
        <dc:format>image/svg+xml</dc:format>
        <dc:type
           rdf:resource="http://purl.org/dc/dcmitype/StillImage" />
      </cc:Work>
    </rdf:RDF>
  </metadata>
  <g
     inkscape:label="Layer 1"
     inkscape:groupmode="layer"
     id="layer1"
     transform="translate(-59.62574,-110.15787)">
    <path
       style="fill:#000000;stroke-width:0.264583"
       id="path853"
       d="" />
    <path
       style="fill:#000000;stroke-width:0.264583"
       id="path849"
       d="" />
    <path
       style="fill:#273839;fill-opacity:1;stroke-width:0.437683"
       d="m 122.55658,231.28842 v -11.16093 h -2.7647 -2.76472 l -3.36285,-4.12912 c -1.84957,-2.27101 -3.36288,-4.25555 -3.36288,-4.41007 0,-0.15452 0.8757,-1.41898 1.94598,-2.80988 1.46265,-1.90082 1.82139,-2.65352 1.44436,-3.03055 -0.34362,-0.34361 -3.26564,-0.50181 -9.27716,-0.50229 -7.47789,-4.3e-4 -9.00208,-0.11389 -10.30744,-0.76594 l -1.53189,-0.76526 -0.125272,-4.26742 -0.125271,-4.2674 h 4.830363 4.83037 v -2.18842 -2.18842 h -4.81451 -4.814524 v -3.85484 -3.85486 l 3.610874,-1.90328 c 1.986,-1.04681 5.9,-3.1528 8.69778,-4.67999 2.79779,-1.52716 5.46575,-2.77666 5.92883,-2.77666 0.6134,0 1.5874,-1.30703 3.58777,-4.81453 l 2.74577,-4.8145 h 11.69776 11.69777 l 2.74578,4.8145 c 1.95449,3.42705 2.98119,4.81453 3.56265,4.81453 0.68946,0 14.29452,7.06068 17.41298,9.03687 0.9307,0.58979 0.99312,0.89099 0.87538,4.2245 l -0.12678,3.58942 -5.14278,0.12332 -5.14279,0.12332 v 2.17454 2.17453 h 5.2522 5.2522 v 4.14909 4.14909 l -1.76534,0.90061 c -1.61626,0.82455 -2.48995,0.89625 -10.3441,0.84902 -10.51412,-0.0633 -10.58489,-0.0294 -7.77387,3.71626 1.07448,1.43175 1.90091,2.73909 1.83652,2.9052 -0.0644,0.16612 -1.64798,2.09678 -3.5191,4.29035 l -3.40205,3.9883 h -4.58567 -4.58566 v 9.65546 9.65545 l -1.64132,-0.13585 -1.64131,-0.13584 -0.11799,-9.5196 c -0.0999,-8.06124 -0.21723,-9.51962 -0.76595,-9.51962 -0.55413,0 -0.64799,1.51626 -0.64799,10.46861 0,5.75773 -0.1196,10.78014 -0.26567,11.16091 -0.17002,0.44309 -0.80032,0.69233 -1.75073,0.69233 h -1.48506 z m 9.92733,-28.26905 c 5.94389,-2.87738 7.71461,-10.85638 3.53465,-15.92738 -2.69113,-3.26482 -8.1165,-4.69497 -11.86657,-3.12811 -2.1362,0.89256 -4.68977,3.31355 -5.59366,5.30319 -0.99002,2.17925 -1.0562,6.24076 -0.13756,8.44322 0.8974,2.15159 3.06639,4.38752 5.23001,5.39139 2.43445,1.12955 6.40626,1.09254 8.83313,-0.0823 z m 7.59137,-31.4554 c -0.70343,-1.19301 -1.60727,-2.67018 -2.00854,-3.28262 l -0.72961,-1.11352 -8.81275,0.002 -8.81275,0.002 -0.68308,1.20087 c -0.37569,0.66047 -1.23148,2.13641 -1.90174,3.27985 l -1.21866,2.07901 h 12.72304 12.72305 l -1.27896,-2.16912 z m -36.03984,70.14009 c -0.73955,-1.1966 -1.61229,-8.37459 -1.61229,-13.26045 0,-4.67438 0.1258,-5.74849 0.76593,-6.53943 0.73888,-0.91294 0.76596,-0.74833 0.76596,4.6566 0,3.08165 0.15936,6.35605 0.35412,7.27644 0.30587,1.44537 0.44636,1.59691 1.03082,1.11184 1.24364,-1.03214 4.17797,-5.70543 5.27025,-8.39354 0.6961,-1.71308 1.02359,-3.25038 0.92118,-4.3242 -0.0873,-0.91638 -0.1232,-1.66615 -0.0795,-1.66615 0.0437,0 0.61393,0.91214 1.26727,2.02698 1.10006,1.87709 1.14871,2.16024 0.65811,3.82972 -1.17984,4.01479 -8.70119,16.31884 -9.34186,15.28219 z m 46.45224,-3.07447 c -3.04992,-4.28028 -5.36239,-8.45617 -6.47735,-11.69683 -0.91967,-2.67309 -0.80839,-3.31851 0.82755,-4.79901 0.91455,-0.82765 0.91589,-0.82636 0.91624,0.88028 2e-4,0.98997 0.55303,2.87744 1.31384,4.48566 1.4025,2.9646 4.71462,7.94672 5.283,7.94672 0.87955,0 1.39173,-9.73701 0.71369,-13.56819 l -0.34857,-1.96958 0.86561,0.99615 c 1.12761,1.29766 1.55375,4.83457 1.22756,10.1888 -0.27106,4.44891 -1.11712,10.02633 -1.60793,10.59978 -0.15924,0.18604 -1.38037,-1.19265 -2.71364,-3.06378 z M 91.809335,218.03923 c -1.963941,-0.65326 -2.079001,-0.77818 -2.079001,-2.25741 0,-1.26742 0.521431,-2.2121 2.73553,-4.95612 l 2.735516,-3.39021 6.89352,-4.1e-4 6.89351,-3.9e-4 v 2.08865 c 0,2.03447 -0.0939,2.1821 -3.62004,5.68988 l -3.62002,3.60123 -3.93001,-0.0418 c -2.30097,-0.0244 -4.79179,-0.3285 -6.009005,-0.73337 z m 60.021755,-2.58331 -3.45121,-3.35853 v -2.33134 -2.33136 h 6.76872 6.76871 l 2.85576,3.39204 c 2.43272,2.88959 2.8402,3.61375 2.75088,4.8888 -0.0961,1.37275 -0.28616,1.56031 -2.29327,2.26391 -1.4065,0.49306 -3.57474,0.77928 -6.0684,0.80109 l -3.88,0.0339 z m 1.36329,-60.0891 v -4.39326 h -4.37681 -4.37683 v -3.93915 -3.93915 h 4.37683 4.37681 v -4.39325 -4.39326 l 4.04859,0.12584 4.04854,0.12586 v 4.26801 4.26802 l 4.48628,-4.5e-4 4.48625,-7.7e-4 v 3.93915 3.93915 h -4.36099 -4.36099 l -0.12527,4.26741 -0.12528,4.26742 -4.04854,0.12584 -4.04859,0.12585 z m -53.835,-7.66386 v -7.23379 h -7.452638 -7.452634 l 0.121462,-6.23699 0.121464,-6.23698 7.331194,-0.11998 7.331192,-0.11997 v -7.21118 -7.2112 h 6.3464 6.34641 v 7.2112 7.21118 l 7.33119,0.11997 7.3312,0.11998 0.12146,6.23698 0.12146,6.23699 h -7.44179 -7.44179 l -0.12022,7.11235 -0.12022,7.11234 -6.23698,0.12146 -6.23698,0.12146 z"
       id="path855" />
    <path
       style="fill:#ffffff;stroke-width:1.01015"
       d="m 237.89093,457.7138 v -42.5411 l -10.35407,-0.01 -10.35406,-0.01 -12.37437,-15.54081 c -6.8059,-8.54745 -12.37437,-15.83834 -12.37437,-16.20198 0,-0.36364 2.9547,-4.77605 6.56599,-9.80535 3.6113,-5.0293 6.56599,-9.76417 6.56599,-10.52194 0,-3.12346 -4.43359,-3.6444 -37.21615,-4.37293 -31.43047,-0.69848 -33.24007,-0.84353 -38.29275,-3.06952 l -5.3033,-2.33639 -0.0111,-11.74489 c -0.006,-6.45969 -0.29287,-13.44954 -0.63724,-15.53298 l -0.62613,-3.78807 h 18.31491 18.31492 v -9.09137 -9.09137 h -18.18275 -18.18274 l 0.0237,-13.8896 0.0237,-13.8896 27.48095,-14.64721 c 15.11453,-8.05597 30.90011,-16.18245 35.07907,-18.05886 4.17897,-1.8764 8.7838,-4.51354 10.23297,-5.8603 1.44917,-1.34676 6.67671,-9.46062 11.61676,-18.03079 l 8.9819,-15.58215 43.59002,-0.0233 43.59002,-0.0233 8.78686,15.21395 c 4.83278,8.36767 9.76398,16.29164 10.95822,17.60882 1.19424,1.31718 13.76285,8.26386 27.93024,15.43706 27.16945,13.75637 43.36101,22.7374 44.65064,24.76653 0.42641,0.67092 0.78226,6.73969 0.79076,13.48615 0.0129,10.26287 -0.24551,12.36644 -1.58238,12.87945 -0.87881,0.33723 -9.7429,0.61315 -19.69798,0.61315 h -18.10012 v 9.09137 9.09137 h 19.69797 19.69798 v 15.20817 15.20818 l -5.80838,2.72203 -5.80838,2.72204 -32.32488,0.51537 c -33.46354,0.53352 -36.87057,0.97854 -36.87057,4.81597 0,0.94859 2.72742,5.66703 6.06092,10.48539 3.3335,4.81838 6.06091,9.37289 6.06091,10.12114 0,0.74825 -5.70474,8.05989 -12.67721,16.2481 l -12.67722,14.88765 H 286.3279 269.20561 v 36.36549 36.36549 h -2.90418 c -1.59731,0 -4.26353,-0.27186 -5.92493,-0.60415 l -3.02074,-0.60414 -0.5668,-33.48851 c -0.31173,-18.41867 -0.88052,-34.51128 -1.26395,-35.76134 -1.03043,-3.35934 -3.32564,-2.76479 -3.89963,1.01015 -0.27455,1.80565 -0.76946,20.10204 -1.09979,40.65864 -0.4366,27.16937 -0.93344,37.6991 -1.81944,38.56012 -0.67034,0.65146 -3.37802,1.49856 -6.01704,1.88246 l -4.79822,0.698 z m 37.37564,-106.30911 c 14.96203,-6.94569 22.95625,-21.03961 22.02269,-38.82629 -0.98628,-18.79126 -13.41153,-32.22084 -33.11672,-35.79357 -12.46955,-2.26084 -22.47347,0.7811 -32.3854,9.84757 -3.07928,2.81663 -6.93312,7.54826 -8.56407,10.51472 -2.67497,4.86537 -3.00123,6.48175 -3.33146,16.50525 -0.45748,13.88551 1.49331,19.97917 9.03915,28.23553 9.30028,10.17598 15.76182,12.78198 30.67844,12.37293 8.33119,-0.22845 11.07522,-0.72901 15.65737,-2.85614 z m 32.21326,-114.77646 c -1.26319,-2.08344 -4.74078,-7.77155 -7.72797,-12.64026 l -5.43127,-8.85218 -34.00226,0.26589 -34.00227,0.26589 -6.79589,11.61675 c -3.73775,6.38922 -6.81551,11.95768 -6.83948,12.37437 -0.024,0.41669 21.81279,0.75762 48.52613,0.75762 h 48.56971 z"
       id="path141"
       transform="matrix(0.26458334,0,0,0.26458334,59.62574,110.15787)" />
    <path
       style="fill:#ffffff;stroke-width:1.01015"
       d="M 151.01781,141.58048 V 114.14724 H 122.73353 94.449263 l 0.0046,-11.86929 c 0.0025,-6.528115 0.299264,-16.983194 0.659417,-23.233513 l 0.654819,-11.364216 h 18.378291 c 10.10807,0 22.53925,-0.295353 27.62486,-0.65634 l 9.24656,-0.656338 V 39.244686 12.121831 h 23.2335 23.23351 v 27.122855 27.122857 l 9.24656,0.656338 c 5.08561,0.360987 17.58625,0.65634 27.77919,0.65634 h 18.53264 v 6.404658 c 0,3.522562 0.29868,13.977641 0.66371,23.233508 l 0.66371,16.828853 H 226.04752 197.7244 l -0.40194,26.2094 c -0.22106,14.41517 -0.64054,26.448 -0.93218,26.73963 -0.29163,0.29163 -10.61974,0.84237 -22.95135,1.22384 l -22.42112,0.69361 z"
       id="path180"
       transform="matrix(0.26458334,0,0,0.26458334,59.62574,110.15787)" />
    <path
       style="fill:#ffffff;stroke-width:1.01015"
       d="m 354.05847,170.36784 v -16.82465 h -16.66752 -16.66752 v -14.14214 -14.14213 h 16.66752 16.66752 V 108.5914 91.923882 h 8.43811 c 4.64097,0 11.23221,0.29204 14.64722,0.648979 l 6.20909,0.648979 v 16.01854 16.01854 h 17.1726 17.17259 v 14.14213 14.14214 h -16.59641 -16.59641 l -0.32365,15.576 c -0.178,8.5668 -0.5941,15.8452 -0.92466,16.17421 -0.33056,0.329 -7.03545,0.89089 -14.89975,1.24864 l -14.29873,0.65044 z"
       id="path219"
       transform="matrix(0.26458334,0,0,0.26458334,59.62574,110.15787)" />
    <path
       style="fill:#ffffff;stroke-width:1.01015"
       d="m 134.35029,409.46995 c -6.03126,-0.69514 -14.20151,-2.64478 -16.92006,-4.03759 -2.33444,-1.19601 -2.77792,-2.07215 -2.77792,-5.48806 0,-5.42466 1.74923,-8.56124 11.92871,-21.38963 l 8.61685,-10.85914 h 25.58764 25.58764 v 5.49008 c 0,3.01954 -0.48235,6.75874 -1.07188,8.30933 -0.58954,1.55059 -6.8174,8.626 -13.8397,15.72313 l -12.76781,12.90386 -10.6565,-0.15135 c -5.86108,-0.0832 -12.02022,-0.30853 -13.68697,-0.50063 z"
       id="path258"
       transform="matrix(0.26458334,0,0,0.26458334,59.62574,110.15787)" />
    <path
       style="fill:#ffffff;stroke-width:1.01015"
       d="m 167.36282,494.05411 c -4.09255,-11.7399 -6.62003,-63.94315 -3.37199,-69.64595 0.74595,-1.30971 1.72254,-1.99156 2.1702,-1.51523 0.44766,0.47634 1.05894,10.63929 1.35841,22.58434 0.29947,11.94506 0.85322,22.96835 1.23056,24.4962 1.12852,4.56938 3.98978,3.46468 9.13738,-3.52784 11.08273,-15.05482 17.4705,-28.78217 18.45329,-39.65618 l 0.63908,-7.07107 3.28299,5.79308 c 3.95535,6.97948 4.03063,8.84206 0.71353,17.65477 -4.30946,11.44917 -21.97289,41.60504 -30.0038,51.22395 l -2.46379,2.95096 z"
       id="path297"
       transform="matrix(0.26458334,0,0,0.26458334,59.62574,110.15787)" />
    <path
       style="fill:#ffffff;stroke-width:1.01015"
       d="m 348.75517,397.3252 -12.87945,-12.99025 v -8.31971 -8.31971 h 25.0781 25.0781 l 9.51963,11.59286 c 15.22571,18.54165 15.63523,23.20187 2.4304,27.65757 -5.68289,1.91758 -9.89813,2.47598 -21.70013,2.87468 l -14.64721,0.4948 z"
       id="path336"
       transform="matrix(0.26458334,0,0,0.26458334,59.62574,110.15787)" />
    <path
       style="fill:#ffffff;stroke-width:1.01015"
       d="m 346.17943,488.00988 c -15.36167,-20.38648 -28.48645,-45.95258 -28.48645,-55.48949 0,-3.03887 0.72251,-4.51968 3.53553,-7.24617 l 3.53553,-3.42677 0.012,2.97608 c 0.0353,8.76128 7.81653,26.25375 17.94447,40.33978 6.16718,8.57737 8.64327,10.2059 9.69182,6.37431 2.4208,-8.8461 3.07345,-41.53696 1.02445,-51.31416 l -0.52925,-2.52538 2.02564,2.3044 c 3.02504,3.44133 4.39979,12.12208 4.30823,27.20388 -0.11377,18.74039 -3.93267,48.77854 -6.20147,48.77854 -0.46812,0 -3.55534,-3.58876 -6.86049,-7.97502 z"
       id="path375"
       transform="matrix(0.26458334,0,0,0.26458334,59.62574,110.15787)" />
  </g>
</svg>
